<svg width="192" height="172" viewBox="0 0 192 172" fill="none" xmlns="http://www.w3.org/2000/svg">
<path d="M191.234 94.4583L188.812 84.5537L177.385 90.1486L177.55 78.5208L184.538 9.04508L176.232 5.49251L134.612 32.8285L120.275 27.3523L113.722 12.6304L104.821 17.5745L95.7723 5.25922L87.1709 17.8037L78.0193 13.3958L75.9746 27.381L60.1636 30.0986L19.0902 0.724365L12.0612 11.0465L18.1417 70.6585L13.531 90.2591L6.88802 87.2181L0.458496 93.0709L12.7386 106.373L4.5642 106.978L2.8357 113.605L13.9047 121.414L7.08509 123.943V130.381L17.0743 134.756L20.9706 141.53L31.6002 143.073L30.4014 148.083L37.3195 154.164C38.4814 154.025 43.088 153.497 46.8693 153.42H47.1116L47.2963 153.583C58.55 163.975 71.6308 170.916 98.8926 171.011H99.1267C115.927 171.011 132.091 164.618 140.003 158.679C140.964 157.959 144.556 156.665 145.792 156.231L146.207 151.766H157.44L159.735 143.036L172.015 141.145L171.863 132.53H182.366L186.085 124.696L177.981 119.875L187.769 116.224L188.869 106.098L179.155 104.416L191.242 94.4501L191.234 94.4583ZM60.1636 38.1778C67.0611 34.5843 73.4086 32.5338 80.4991 31.4697L81.3777 20.0384L88.5011 25.048C90.5663 24.9498 93.5552 13.7805 95.8175 13.7805C98.6422 13.7805 100.892 23.3045 103.462 23.4682L109.625 19.5923L114.112 32.0099C121.252 33.3933 127.735 35.8286 134.522 39.774C142.848 33.1846 169.7 19.0848 176.515 12.2948C174.708 21.6346 175.304 54.6638 169.338 76.0733C171.999 82.5441 171.346 90.1527 170.944 97.4911C153.223 105.386 132.572 115.36 128.983 116.686C121.482 115.221 111.871 114.304 106.558 109.761C93.4731 98.5757 82.3754 113.404 68.3873 115.987C65.8664 116.453 63.5303 116.895 61.4569 117.423C59.5477 116.568 56.9776 115.381 53.9516 113.977C53.9475 113.977 53.9393 113.973 53.9352 113.969C29.4365 101.629 35.1311 78.9301 46.5901 59.8371C54.5141 46.6418 75.1288 45.2134 75.1288 45.2134C56.6902 40.6417 36.6708 52.1999 30.1345 75.4635C26.0329 90.079 27.2194 98.1828 28.9233 102.402C26.4106 101.261 23.9102 100.135 21.4756 99.0505C21.3894 89.8703 21.9395 78.173 25.4951 70.9778C20.2808 49.7319 20.1946 29.9349 18.6509 9.71222C25.8153 16.8542 52.4366 32.0795 60.1636 38.1778ZM182.049 111.071C183.913 111.415 177.878 113.392 168.098 115.643C167.133 118.692 165.922 121.573 164.493 124.303C170.911 124.602 175.85 124.995 177.09 125.543C178.872 126.333 172.73 127.058 162.896 127.144C161.755 129.039 160.499 130.86 159.136 132.612C162.736 133.61 165.339 134.466 166.029 135.01C167.088 135.849 163.492 135.657 157.514 134.613C155.551 136.926 153.4 139.119 151.072 141.203C152.903 142.954 154.32 144.923 155.083 147.145C155.506 148.381 153.342 146.331 148.83 143.138C145.726 145.717 142.347 148.132 138.73 150.415C137.774 151.144 136.838 151.836 135.918 152.486C135.528 152.761 135.635 153.366 136.098 153.493L138.644 154.193L129.353 156.678C119.655 162.096 110.733 163.377 95.8257 163.377C75.9377 163.377 63.1443 160.287 53.5164 151.39C50.4659 149.36 47.5344 147.301 44.7754 145.164C40.2304 148.381 38.0462 150.448 38.4732 149.208C39.2327 147.006 40.6328 145.046 42.4434 143.306C39.8034 141.137 37.3359 138.87 35.0942 136.455C28.0036 137.687 23.5941 137.961 24.7889 137.073C25.5895 136.475 28.8371 135.505 33.2466 134.376C31.9164 132.8 30.6805 131.167 29.5474 129.456C18.5852 129.505 11.4166 128.871 13.2354 128.065C14.5534 127.483 20.3793 127.029 27.8312 126.661C26.271 123.914 24.9654 120.98 23.9554 117.8C13.531 115.512 7.05225 113.486 9.01477 113.134C10.423 112.884 15.9452 113.637 23.1178 114.832C22.4363 112.098 21.96 109.188 21.7137 106.078C16.3845 102.754 11.782 98.6535 7.67632 93.2796C7.32323 92.8171 7.90213 92.195 8.37428 92.5429C9.38429 93.2878 10.5216 94.0572 11.7533 94.843C14.5698 96.6357 17.9036 98.5143 21.4961 100.393C24.2551 101.838 27.1661 103.282 30.1058 104.686C39.3477 109.102 48.8852 113.142 55.0191 115.602C57.4128 116.564 59.2891 117.284 60.4222 117.693C60.9642 117.89 61.3378 118.017 61.5185 118.062C63.4851 118.557 64.7784 119.867 64.3144 120.313C64.1913 120.436 63.9531 120.489 63.5754 120.46C61.3214 119.92 59.1413 119.396 57.0268 118.876C55.9799 119.339 55.0684 119.871 54.3253 120.501C62.4135 122.015 68.5556 123.141 69.3768 123.104C70.3498 123.059 71.2284 123.243 71.8361 123.509C71.0437 123.702 67.2541 123.841 62.2411 124H62.2329C59.0058 123.669 55.7541 123.276 52.5311 122.838C52.3299 123.292 52.1821 123.788 52.0918 124.316C49.5462 124.401 46.9761 124.5 44.5291 124.61C43.9543 123.489 43.4575 122.421 43.0305 121.418C39.5899 120.857 36.2561 120.268 33.107 119.666C33.9282 121.577 34.815 123.403 35.7634 125.146C32.6595 125.421 30.4465 125.752 29.8184 126.174C29.6049 126.317 29.4858 126.448 29.4529 126.575C31.67 126.472 34.0103 126.374 36.3957 126.288C39.3272 126.174 42.3284 126.075 45.2763 125.981C47.5673 125.908 49.8254 125.838 51.985 125.768C61.3994 125.478 69.036 125.249 69.8859 125.007C70.8877 124.717 71.8361 124.753 72.4478 124.946C73.2197 125.191 73.4578 125.687 72.6038 126.112C72.5423 126.125 72.4807 126.133 72.4191 126.145C72.3575 126.239 72.2672 126.337 72.1399 126.444C66.8148 128.507 61.0217 130.336 55.364 131.883C56.1112 132.448 56.9693 132.964 57.9301 133.43C55.9799 134.286 54.12 135.198 52.6009 136.148C51.7264 135.161 50.9134 134.191 50.158 133.238C47.4441 133.913 44.8124 134.515 42.3325 135.039C43.7531 136.803 45.227 138.448 46.742 139.979C47.8218 139.287 48.9591 138.653 50.1292 138.051C50.1292 138.051 50.1292 138.051 50.1334 138.051C51.09 137.56 52.0712 137.097 53.0607 136.664C55.2491 135.702 57.4785 134.871 59.6011 134.159C60.7014 133.79 61.7689 133.451 62.7912 133.144H62.7953C67.7509 131.65 71.5774 130.827 72.0003 130.422C73.1745 129.288 74.1886 130.627 73.4784 131.646C69.619 132.628 66.0553 133.844 62.7953 135.178C67.3732 136.373 73.1458 136.901 79.6 136.782C95.296 136.483 94.5693 133.586 94.5858 131.543C94.6145 127.844 89.5316 128.273 87.4377 127.18C85.7092 126.276 81.0985 123.644 79.4316 119.58C78.6351 117.64 80.1789 116.032 82.5561 114.579C87.8894 111.304 100.453 109.819 109.362 115.078C111.805 116.519 110.093 120.767 108.8 122.363C105.01 127.017 99.3607 128.891 98.7325 129.272C97.9853 129.722 98.322 132.178 98.4082 133.766C98.4944 135.354 110.257 136.639 121.605 136.34C125.489 136.238 128.963 135.149 131.796 133.561C128.253 132.055 124.336 130.684 120.058 129.595C119.351 128.576 120.361 127.238 121.536 128.367C121.954 128.773 125.781 129.595 130.728 131.085C131.779 131.4 132.88 131.748 134.009 132.129C137.072 133.156 140.348 134.429 143.407 135.996C141.752 134.294 138.57 132.648 135.179 131.191C135.741 130.704 136.25 130.201 136.714 129.685C131.537 128.171 126.253 126.391 121.388 124.389C121.265 124.287 121.178 124.185 121.125 124.086C121.063 124.078 121.006 124.066 120.944 124.058C120.09 123.636 120.328 123.137 121.1 122.891C121.712 122.699 122.656 122.662 123.654 122.949C124.479 123.182 131.213 123.35 139.65 123.546C147.385 123.73 156.561 123.943 163.923 124.275C163.869 124.221 163.8 124.168 163.722 124.115C162.108 123.039 150.226 122.531 139.486 122.183C139.363 121.737 139.17 121.328 138.911 120.955C136.279 121.315 133.635 121.643 131.007 121.925C126.081 121.77 122.394 121.631 121.679 121.438C122.262 121.176 123.104 120.992 124.036 121.037C124.746 121.07 129.648 120.153 136.328 118.856C135.396 118.385 134.3 117.988 133.085 117.64C132.063 117.894 131.028 118.144 129.965 118.397C129.587 118.426 129.349 118.373 129.226 118.25C128.95 117.988 129.291 117.419 130.026 116.899C130.531 116.535 131.221 116.199 132.022 115.999C133.799 115.549 154.582 107.343 170.861 98.9482C174.893 96.869 178.65 94.7776 181.774 92.7925H181.779C183.018 92.0026 184.156 91.2332 185.17 90.4842C185.642 90.1404 186.282 90.8075 185.868 91.225C180.789 96.3246 175.866 100.336 170.541 103.663C170.287 106.192 169.893 108.624 169.363 110.965C162.691 111.873 153.285 114.914 152.694 115.176C152.086 115.446 151.47 115.737 150.99 116.019C157.222 114.82 163.586 113.621 168.944 112.7C171.486 112.258 173.797 111.886 175.76 111.603C178.958 111.141 181.228 110.924 182.049 111.075V111.071Z" fill="white"/>
<path d="M48.0066 78.3121C46.3889 94.6711 52.5187 111.116 64.8194 111.169C81.0492 111.239 89.0636 99.8813 90.5786 85.4295C92.2906 69.0992 84.6253 56.792 72.4888 54.721C60.3524 52.6501 49.8008 60.2095 48.0066 78.3121ZM79.797 78.0911L74.7182 82.6096L80.4005 86.8006C79.6287 89.7065 77.8796 91.8553 75.6667 92.2195C72.3287 92.7639 69.2002 89.0353 68.6747 83.8947C68.1532 78.7541 70.4319 74.1415 73.7698 73.5972C76.1963 73.2043 78.5119 75.0665 79.797 78.0911Z" fill="white"/>
<path d="M41.811 118.164C41.3306 116.678 41.0309 115.422 40.838 114.444C36.876 113.191 33.2219 111.853 29.8265 110.347C30.4054 112.422 31.0541 114.415 31.7644 116.33C35.0448 116.916 38.4525 117.542 41.811 118.164Z" fill="white"/>
<path d="M47.009 128.875C43.979 129.059 41.0147 129.19 38.1858 129.288C38.9207 130.438 39.6803 131.548 40.4604 132.616C43.0059 132.022 45.6746 131.412 48.3269 130.815C47.863 130.156 47.4236 129.509 47.0131 128.875H47.009Z" fill="white"/>
<path d="M55.0766 138.792C52.8801 139.958 50.8847 141.129 49.1028 142.254C61.1325 153.223 74.981 157.496 82.4 157.615C69.968 151.557 61.2228 144.997 55.0766 138.792Z" fill="white"/>
<path d="M113.829 107.85C126.241 114.587 137.117 104.502 141.851 90.873C146.589 77.2439 145.271 61.3269 134.53 57.0703C123.786 52.8179 108.537 59.657 103.803 73.2902C99.0651 86.9193 103.618 102.308 113.829 107.85ZM113.004 80.4977C114.154 77.9847 116.235 76.4335 118.411 76.765C121.404 77.2152 123.449 81.0461 122.981 85.3149C122.509 89.5838 119.7 92.6779 116.711 92.2277C114.724 91.929 113.16 90.1445 112.466 87.7297L117.561 84.2508L113.004 80.5018V80.4977Z" fill="white"/>
<path d="M63.6575 127.393C59.9747 127.835 56.2385 128.2 52.5433 128.49C52.7281 128.916 52.958 129.325 53.229 129.718C57.1294 128.85 60.7753 128.044 63.6534 127.393H63.6575Z" fill="white"/>
<path d="M138.373 127.463C138.615 127.054 138.825 126.648 139.005 126.247C135.655 125.973 132.247 125.629 128.864 125.208C131.451 125.838 134.776 126.612 138.373 127.463Z" fill="white"/>
<path d="M81.6775 117.726H81.7186C82.2072 117.124 83.2213 116.302 84.4653 116.22C83.3362 116.641 82.7286 117.235 82.3057 117.693C83.5662 117.501 84.5844 115.753 87.6226 114.861C89.7083 114.247 92.5782 113.568 97.6898 113.195C87.5733 112.254 79.7273 117.591 81.6775 117.726Z" fill="white"/>
<path d="M37.7669 52.3513C36.5598 53.043 35.209 53.8656 34.2196 54.4714C34.0718 54.5614 33.924 54.3568 34.0553 54.2463L38.6619 48.9747C38.9781 46.7646 36.1698 45.152 35.0243 41.5258C32.409 33.2583 24.5917 26.9389 24.5917 26.9389C24.5917 26.9389 25.4909 51.9707 29.6746 61.6584C34.0718 57.631 36.683 54.9093 37.7669 52.3513Z" fill="white"/>
<path d="M143.928 43.9201C150.838 44.2148 163.217 25.4164 163.455 25.0521C163.352 25.1626 161.579 26.9921 152.599 31.8012C143.329 36.7658 137.453 42.2338 137.453 42.2338C137.453 42.2338 136.957 43.6254 143.932 43.9201H143.928Z" fill="white"/>
<path d="M115.784 47.2066C115.488 44.3744 105.318 46.9119 103.524 54.5123C102.424 59.1822 116.083 50.0388 115.784 47.2066Z" fill="white"/>
<path d="M95.0414 31.0809C95.0414 31.0809 93.9124 25.6661 94.0479 25.4696C94.1792 25.2691 95.5588 17.3413 95.5588 17.3413C95.5588 17.3413 91.1903 24.9907 91.3874 26.0508C91.5885 27.1067 95.0414 31.0809 95.0414 31.0809Z" fill="white"/>
</svg>
